<svg width="800" height="400" viewBox="0 0 800 400" xmlns="http://www.w3.org/2000/svg">
  <defs>
    <linearGradient id="bg" x1="0%" y1="0%" x2="100%" y2="100%">
      <stop offset="0%" stop-color="#059669"/>
      <stop offset="100%" stop-color="#064e3b"/>
    </linearGradient>
  </defs>
  <rect width="800" height="400" fill="url(#bg)"/>
  <circle cx="740" cy="40" r="150" fill="#ffffff" opacity="0.08"/>
  <circle cx="30" cy="400" r="190" fill="#ffffff" opacity="0.06"/>

  <g transform="translate(56,48)">
    <rect width="72" height="72" rx="18" fill="#ffffff" fill-opacity="0.15"/>
    <g transform="translate(18,18) scale(1.5)" stroke="#ffffff" stroke-width="1.6" fill="none" stroke-linecap="round" stroke-linejoin="round">
      <path d="M8.25 3v1.5M4.5 8.25H3m18 0h-1.5M4.5 12H3m18 0h-1.5m-15 3.75H3m18 0h-1.5M8.25 19.5V21M12 3v1.5m0 15V21m3.75-18v1.5m0 15V21m-9-1.5h10.5a2.25 2.25 0 002.25-2.25V6.75a2.25 2.25 0 00-2.25-2.25H6.75A2.25 2.25 0 004.5 6.75v10.5a2.25 2.25 0 002.25 2.25z"/>
    </g>
  </g>

  <text x="56" y="163" font-family="Segoe UI, Arial, sans-serif" font-size="16" font-weight="700" letter-spacing="2" fill="#ffffff" fill-opacity="0.85">FORMATION E-SCHOOL237</text>

  <text x="54" y="300" font-family="Segoe UI, Arial, sans-serif" font-size="46" font-weight="700" fill="#ffffff">Robotique</text>
  <text x="54" y="345" font-family="Segoe UI, Arial, sans-serif" font-size="24" font-weight="400" fill="#ffffff" fill-opacity="0.85">Arduino &amp; électronique</text>
</svg>
